<?xml version="1.0" standalone="no"?>
<!DOCTYPE svg PUBLIC "-//W3C//DTD SVG 20010904//EN" "http://www.w3.org/TR/2001/REC-SVG-20010904/DTD/svg10.dtd">
<!-- Created using Krita: http://krita.org -->
<svg xmlns="http://www.w3.org/2000/svg" 
    xmlns:xlink="http://www.w3.org/1999/xlink"
    xmlns:krita="http://krita.org/namespaces/svg/krita"
    xmlns:sodipodi="http://sodipodi.sourceforge.net/DTD/sodipodi-0.dtd"
    viewBox="0 0 100 53.5">
<defs/>
<path id="shape0" transform="matrix(0.334280328 0 0 0.334280328 0 0)" fill="#484848" fill-rule="evenodd" d="M0 20.666L83.622 20.8919L78.5839 0L299.192 0L299.143 24.3608C261.756 31.814 235.349 50.1821 223.839 108.711L215.526 108.711L210.795 121.751L217.699 121.751L229.637 160.068L113.56 160.068L125.282 121.751L132.237 121.751L127.311 108.711L119.042 108.711L103.631 67.5676C40.446 63.8496 8.00142 50.5689 0 20.666ZM175.533 116.854C166.313 100.037 160.259 113.273 141.294 96.0643C133.897 89.3525 130.947 69.6796 147.567 63.666C140.012 80.3432 159.622 87.1666 164.289 77.6319C166.41 73.2983 169.087 65.3058 161.358 59.827C157.194 56.8752 155.59 48.1229 159.155 43.2578C160.303 46.8752 163.923 50.7404 170.87 47.868C156.154 23.5158 179.647 15.1239 190.944 16.2127C179.072 17.5319 172.92 28.11 178.321 39.6268C181.761 46.9623 186.998 50.5725 188.521 56.576C183.45 56.9536 181.984 59.2877 182.091 63.642C182.171 66.9009 189.718 71.613 190.914 62.3089C194.429 69.5618 190.194 73.8249 187.884 77.2614C182.552 85.1935 187.574 93.4475 194.195 87.1535C197.051 84.439 199.028 79.4317 195.406 71.2447C202.074 76.5575 208.885 90.8233 198.122 103.185C192.869 109.219 177.327 107.346 175.533 116.854Z"/>
</svg>